<mxfile host="65bd71144e">
    <diagram id="bzGfWqqAgHukOm0xWJyx" name="Page-1">
        <mxGraphModel dx="474" dy="610" grid="1" gridSize="10" guides="1" tooltips="1" connect="1" arrows="1" fold="1" page="1" pageScale="1" pageWidth="850" pageHeight="1100" math="0" shadow="0">
            <root>
                <mxCell id="0"/>
                <mxCell id="1" parent="0"/>
                <mxCell id="2" value="Application" style="rounded=1;whiteSpace=wrap;html=1;fillColor=#dae8fc;strokeColor=#6c8ebf;" parent="1" vertex="1">
                    <mxGeometry x="280" y="140" width="120" height="60" as="geometry"/>
                </mxCell>
                <mxCell id="3" value="Domain" style="rounded=1;whiteSpace=wrap;html=1;" parent="1" vertex="1">
                    <mxGeometry x="280" y="230" width="120" height="60" as="geometry"/>
                </mxCell>
                <mxCell id="4" value="client-app" style="rounded=1;whiteSpace=wrap;html=1;" parent="1" vertex="1">
                    <mxGeometry x="280" y="320" width="120" height="60" as="geometry"/>
                </mxCell>
                <mxCell id="5" value="Persistence" style="rounded=1;whiteSpace=wrap;html=1;" parent="1" vertex="1">
                    <mxGeometry x="280" y="50" width="120" height="60" as="geometry"/>
                </mxCell>
            </root>
        </mxGraphModel>
    </diagram>
</mxfile>